<?xml version="1.0" encoding="UTF-8"?>
<svg id="_Слой_1" data-name="Слой 1" xmlns="http://www.w3.org/2000/svg" xmlns:xlink="http://www.w3.org/1999/xlink" viewBox="0 0 2000 2000">
  <defs>
    <style>
      .cls-1 {
        fill: url(#_Безымянный_градиент_446-2);
      }

      .cls-2 {
        fill: #fff;
      }

      .cls-3 {
        fill: url(#_Безымянный_градиент_446);
      }

      .cls-4 {
        fill: url(#_Безымянный_градиент_841);
      }

      .cls-5 {
        fill: url(#_Безымянный_градиент_418);
      }
    </style>
    <linearGradient id="_Безымянный_градиент_841" data-name="Безымянный градиент 841" x1="1218.64" y1="1202.83" x2="1124.52" y2="985.18" gradientUnits="userSpaceOnUse">
      <stop offset="0" stop-color="#ffa2c6"/>
      <stop offset="1" stop-color="#eb31b0"/>
    </linearGradient>
    <linearGradient id="_Безымянный_градиент_446" data-name="Безымянный градиент 446" x1="1082.6" y1="311.72" x2="1070.35" y2="1054.8" gradientUnits="userSpaceOnUse">
      <stop offset="0" stop-color="#7fb4fe"/>
      <stop offset="1" stop-color="#9a46ab"/>
    </linearGradient>
    <linearGradient id="_Безымянный_градиент_446-2" data-name="Безымянный градиент 446" x1="1479.18" y1="661.56" x2="755.15" y2="677.89" xlink:href="#_Безымянный_градиент_446"/>
    <linearGradient id="_Безымянный_градиент_418" data-name="Безымянный градиент 418" x1="766.11" y1="312.35" x2="604.16" y2="1115.31" gradientUnits="userSpaceOnUse">
      <stop offset="0" stop-color="#0fc0f9"/>
      <stop offset="1" stop-color="#305abe"/>
    </linearGradient>
  </defs>
  <g>
    <path class="cls-4" d="M1303.87,1200.84h-171.83l-99.79-229.93h0c-33.57-77.33,8.39-166.55,89.35-190h0s63.14,145.41,63.14,145.41l119.14,274.53Z"/>
    <path class="cls-3" d="M1401.19,622.7c0,1.73,0,3.46-.06,5.16.03.59,0,1.17,0,1.76-.03,1.05-.06,2.1-.09,3.12-.03,1.55-.09,3.09-.19,4.64-.06,1.79-.15,3.55-.28,5.35-.09,1.61-.22,3.21-.34,4.82-.09,1.3-.19,2.63-.34,3.96-.12,1.64-.28,3.28-.43,4.91-.06.4-.09.8-.12,1.17-.22,1.79-.4,3.58-.62,5.38-.22,1.73-.46,3.43-.71,5.16-.19,1.42-.4,2.81-.65,4.2-.15,1.33-.37,2.66-.62,4.02-.31,1.92-.65,3.83-1.02,5.72-.31,1.7-.62,3.4-.99,5.1-.37,1.89-.77,3.74-1.17,5.59-.99,4.42-2.07,8.81-3.24,13.2-.37,1.39-.74,2.78-1.14,4.14-2.5,8.93-5.41,17.71-8.71,26.39-.46,1.3-.96,2.57-1.48,3.83-1.05,2.69-2.16,5.38-3.31,8.07-.83,1.98-1.7,3.96-2.6,5.9-.87,1.95-1.76,3.89-2.69,5.84-1.85,3.86-3.77,7.7-5.78,11.53-.06.12-.12.25-.19.37-1.95,3.68-3.96,7.32-6.06,10.94-2.16,3.74-4.42,7.45-6.74,11.13-1.14,1.82-2.35,3.65-3.52,5.44-3.62,5.44-7.39,10.82-11.34,16.07-38.88,51.77-91.2,89.81-152.02,110.7-5.07,1.76-10.2,3.37-15.39,4.88l-137.09,39.71-275.83,79.92v-164.11l212.53-61.59,152.64-44.23,3.86-1.11c14.12-4.08,27.38-10.01,39.56-17.46,1.85-1.14,3.71-2.32,5.53-3.55,1.79-1.21,3.58-2.44,5.38-3.74.86-.65,1.73-1.3,2.63-1.98,1.73-1.33,3.43-2.66,5.1-4.05.86-.71,1.7-1.39,2.5-2.1,1.27-1.08,2.5-2.16,3.71-3.31,14.03-12.76,25.77-27.94,34.67-44.72,1.02-1.92,2.01-3.86,2.94-5.81,10.97-22.84,16.75-48.4,16.04-74.85-2.35-87.86-74.23-158.67-162.53-159.19-.34-.03-.71-.03-1.05-.03h-323.51c0-43.55,17.65-82.92,46.17-111.44,28.53-28.53,67.9-46.17,111.44-46.17h165.9c171.62,0,312.23,135.24,320.83,304.75.28,5.47.43,11,.43,16.57Z"/>
    <path class="cls-1" d="M1401.19,622.7v1.7c0,1.14-.03,2.32-.06,3.46.03.59,0,1.17,0,1.76-.03,1.05-.06,2.1-.09,3.12-.03,1.55-.09,3.09-.19,4.64-.06,1.79-.15,3.55-.28,5.35-.09,1.61-.22,3.21-.34,4.82-.09,1.3-.19,2.63-.34,3.96-.12,1.64-.28,3.28-.43,4.91-.06.4-.09.8-.12,1.17-.22,1.79-.4,3.58-.62,5.38-.22,1.73-.46,3.43-.71,5.16-.19,1.42-.4,2.81-.65,4.2-.15,1.33-.37,2.66-.62,4.02-.31,1.92-.65,3.83-1.02,5.72-.31,1.7-.62,3.4-.99,5.1-.37,1.89-.77,3.74-1.17,5.59-.99,4.42-2.07,8.81-3.24,13.2-.37,1.39-.74,2.78-1.14,4.14-2.5,8.93-5.41,17.71-8.71,26.39-.46,1.3-.96,2.57-1.48,3.83-1.05,2.69-2.16,5.38-3.31,8.07-.83,1.98-1.7,3.96-2.6,5.9-.87,1.95-1.76,3.89-2.69,5.84-1.82,3.86-3.77,7.73-5.78,11.53-.06.12-.12.25-.19.37-1.95,3.68-3.96,7.32-6.06,10.94-2.16,3.74-4.42,7.45-6.74,11.13-1.14,1.82-2.35,3.65-3.52,5.44-3.62,5.44-7.39,10.82-11.34,16.07-38.88,51.77-91.2,89.81-152.02,110.7-5.07,1.76-10.2,3.37-15.39,4.88l-137.09,39.71-275.83,79.92v-164.11l212.53-61.59,152.64-44.23,3.86-1.11c14.12-4.08,27.38-10.01,39.56-17.46,1.85-1.14,3.71-2.32,5.53-3.55,1.82-1.21,3.62-2.47,5.38-3.74.86-.65,1.73-1.3,2.63-1.98,1.73-1.3,3.43-2.66,5.1-4.05.86-.71,1.7-1.39,2.5-2.1,1.27-1.08,2.5-2.16,3.71-3.31,14.03-12.76,25.77-27.94,34.67-44.72,1.02-1.92,2.01-3.86,2.94-5.81,10.97-22.84,16.75-48.4,16.04-74.85-.06-2.36-.2-4.69-.36-7.02-.1-1.39-.23-2.78-.37-4.18-.07-.77-.15-1.54-.23-2.31-.24-2.18-.52-4.35-.85-6.5-.04-.25-.07-.5-.11-.75-12.32-78.46-80.72-136.55-160.61-138.43-1.3-.03-2.6-.03-3.92-.03h-320.64c0-43.55,17.65-82.92,46.17-111.44,28.53-28.53,67.9-46.17,111.44-46.17h162.07c171.55,0,315.76,135.52,324.66,304.75.28,5.47.43,11,.43,16.57Z"/>
    <path class="cls-5" d="M914.04,301.38c-43.55,0-82.92,17.65-111.44,46.17-28.53,28.53-46.17,67.9-46.17,111.44v741.84h-157.62V301.38h315.23Z"/>
  </g>
  <g>
    <path class="cls-2" d="M0,1698.62v-276.7h119.77c24.77,0,46.11,4.02,64.04,12.06,17.92,8.04,31.75,19.57,41.5,34.59,9.75,15.02,14.63,32.94,14.63,53.76s-4.88,38.28-14.63,53.16c-9.75,14.89-23.59,26.29-41.5,34.19-17.92,7.91-39.27,11.86-64.04,11.86H35.58l28.46-28.07v105.14H0ZM64.04,1600.59l-28.46-30.04h80.64c19.76,0,34.52-4.28,44.27-12.85,9.75-8.56,14.63-20.36,14.63-35.38s-4.88-27.14-14.63-35.57c-9.75-8.43-24.51-12.65-44.27-12.65H35.58l28.46-30.44v156.93ZM175.9,1698.62l-69.17-100.4h68.38l69.96,100.4h-69.17Z"/>
    <path class="cls-2" d="M312.88,1698.62l123.33-276.7h63.24l123.72,276.7h-67.2l-101.19-244.28h25.3l-101.59,244.28h-65.62ZM374.54,1639.33l17-48.62h142.3l17.39,48.62h-176.69Z"/>
    <path class="cls-2" d="M710.74,1698.62v-276.7h125.7c30.04,0,56.52,5.73,79.45,17.2,22.93,11.46,40.84,27.47,53.76,48.03,12.91,20.55,19.37,44.93,19.37,73.13s-6.46,52.24-19.37,72.93c-12.91,20.69-30.83,36.76-53.76,48.22-22.93,11.46-49.41,17.19-79.45,17.19h-125.7ZM774.78,1646.05h58.5c18.44,0,34.45-3.49,48.03-10.48,13.57-6.98,24.11-16.93,31.62-29.84,7.51-12.91,11.26-28.07,11.26-45.46s-3.75-32.87-11.26-45.66c-7.51-12.78-18.05-22.66-31.62-29.65-13.58-6.98-29.58-10.48-48.03-10.48h-58.5v171.55Z"/>
    <path class="cls-2" d="M1159.6,1647.23h150.6v51.39h-214.24v-276.7h209.1v51.39h-145.46v173.92ZM1154.85,1533.39h133.21v49.8h-133.21v-49.8Z"/>
    <path class="cls-2" d="M1485.92,1698.62v-113.05l14.62,38.74-121.75-202.38h67.99l93.29,155.34h-39.13l93.68-155.34h62.85l-121.75,202.38,14.23-38.74v113.05h-64.04Z"/>
    <path class="cls-2" d="M1689.71,1698.62l123.33-276.7h63.24l123.72,276.7h-67.2l-101.19-244.28h25.3l-101.59,244.28h-65.62ZM1751.37,1639.33l17-48.62h142.3l17.39,48.62h-176.69Z"/>
  </g>
</svg>