<?xml version="1.0" encoding="UTF-8"?>
<svg id="_Слой_1" data-name="Слой 1" xmlns="http://www.w3.org/2000/svg" xmlns:xlink="http://www.w3.org/1999/xlink" viewBox="0 0 2000 457.54">
  <defs>
    <style>
      .cls-1 {
        fill: url(#_Безымянный_градиент_446-2);
      }

      .cls-2 {
        fill: url(#_Безымянный_градиент_446);
      }

      .cls-3 {
        fill: #333;
      }

      .cls-4 {
        fill: url(#_Безымянный_градиент_841);
      }

      .cls-5 {
        fill: url(#_Безымянный_градиент_418);
      }
    </style>
    <linearGradient id="_Безымянный_градиент_841" data-name="Безымянный градиент 841" x1="315.3" y1="458.55" x2="267.42" y2="347.83" gradientUnits="userSpaceOnUse">
      <stop offset="0" stop-color="#ffa2c6"/>
      <stop offset="1" stop-color="#eb31b0"/>
    </linearGradient>
    <linearGradient id="_Безымянный_градиент_446" data-name="Безымянный градиент 446" x1="246.1" y1="5.26" x2="239.87" y2="383.25" gradientUnits="userSpaceOnUse">
      <stop offset="0" stop-color="#7fb4fe"/>
      <stop offset="1" stop-color="#9a46ab"/>
    </linearGradient>
    <linearGradient id="_Безымянный_градиент_446-2" data-name="Безымянный градиент 446" x1="447.83" y1="183.22" x2="79.53" y2="191.52" xlink:href="#_Безымянный_градиент_446"/>
    <linearGradient id="_Безымянный_градиент_418" data-name="Безымянный градиент 418" x1="85.1" y1="5.58" x2="2.72" y2="414.03" gradientUnits="userSpaceOnUse">
      <stop offset="0" stop-color="#0fc0f9"/>
      <stop offset="1" stop-color="#305abe"/>
    </linearGradient>
  </defs>
  <g>
    <path class="cls-4" d="M358.65,457.54h-87.41l-50.76-116.96h0c-17.08-39.33,4.27-84.72,45.45-96.65h0s32.12,73.97,32.12,73.97l60.6,139.65Z"/>
    <path class="cls-2" d="M408.16,163.45c0,.88,0,1.76-.03,2.63.02.3,0,.6,0,.9-.02.53-.03,1.07-.05,1.59-.02.79-.05,1.57-.09,2.36-.03.91-.08,1.81-.14,2.72-.05.82-.11,1.63-.17,2.45-.05.66-.09,1.34-.17,2.01-.06.83-.14,1.67-.22,2.5-.03.2-.05.41-.06.6-.11.91-.2,1.82-.31,2.74-.11.88-.24,1.74-.36,2.63-.09.72-.2,1.43-.33,2.14-.08.68-.19,1.35-.31,2.04-.16.97-.33,1.95-.52,2.91-.16.86-.31,1.73-.5,2.59-.19.96-.39,1.9-.6,2.85-.5,2.25-1.05,4.48-1.65,6.71-.19.71-.38,1.41-.58,2.11-1.27,4.54-2.75,9.01-4.43,13.43-.24.66-.49,1.3-.75,1.95-.53,1.37-1.1,2.74-1.68,4.1-.42,1.01-.86,2.01-1.32,3-.44.99-.9,1.98-1.37,2.97-.94,1.97-1.92,3.91-2.94,5.86-.03.06-.06.13-.09.19-.99,1.87-2.01,3.73-3.08,5.57-1.1,1.9-2.25,3.79-3.43,5.66-.58.93-1.19,1.86-1.79,2.77-1.84,2.77-3.76,5.5-5.77,8.17-19.78,26.33-46.39,45.68-77.33,56.31-2.58.9-5.19,1.71-7.83,2.48l-69.74,20.2-140.31,40.65v-83.48l108.11-31.33,77.65-22.5,1.97-.57c7.18-2.08,13.93-5.09,20.12-8.88.94-.58,1.89-1.18,2.81-1.81.91-.61,1.82-1.24,2.74-1.9.44-.33.88-.66,1.34-1.01.88-.68,1.74-1.35,2.59-2.06.44-.36.87-.71,1.27-1.07.64-.55,1.27-1.1,1.89-1.68,7.14-6.49,13.11-14.21,17.64-22.75.52-.97,1.02-1.97,1.49-2.96,5.58-11.62,8.52-24.62,8.16-38.08-1.19-44.69-37.76-80.71-82.68-80.98-.17-.02-.36-.02-.53-.02H80.18c0-22.15,8.98-42.18,23.49-56.69S138.2,0,160.35,0h84.39C332.04,0,403.57,68.79,407.94,155.02c.14,2.78.22,5.6.22,8.43Z"/>
    <path class="cls-1" d="M408.16,163.45v.86c0,.58-.02,1.18-.03,1.76.02.3,0,.6,0,.9-.02.53-.03,1.07-.05,1.59-.02.79-.05,1.57-.09,2.36-.03.91-.08,1.81-.14,2.72-.05.82-.11,1.63-.17,2.45-.05.66-.09,1.34-.17,2.01-.06.83-.14,1.67-.22,2.5-.03.2-.05.41-.06.6-.11.91-.2,1.82-.31,2.74-.11.88-.24,1.74-.36,2.63-.09.72-.2,1.43-.33,2.14-.08.68-.19,1.35-.31,2.04-.16.97-.33,1.95-.52,2.91-.16.86-.31,1.73-.5,2.59-.19.96-.39,1.9-.6,2.85-.5,2.25-1.05,4.48-1.65,6.71-.19.71-.38,1.41-.58,2.11-1.27,4.54-2.75,9.01-4.43,13.43-.24.66-.49,1.3-.75,1.95-.53,1.37-1.1,2.74-1.68,4.1-.42,1.01-.86,2.01-1.32,3-.44.99-.9,1.98-1.37,2.97-.93,1.97-1.92,3.93-2.94,5.86-.03.06-.06.13-.09.19-.99,1.87-2.01,3.73-3.08,5.57-1.1,1.9-2.25,3.79-3.43,5.66-.58.93-1.19,1.86-1.79,2.77-1.84,2.77-3.76,5.5-5.77,8.17-19.78,26.33-46.39,45.68-77.33,56.31-2.58.9-5.19,1.71-7.83,2.48l-69.74,20.2-140.31,40.65v-83.48l108.11-31.33,77.65-22.5,1.97-.57c7.18-2.08,13.93-5.09,20.12-8.88.94-.58,1.89-1.18,2.81-1.81.93-.61,1.84-1.26,2.74-1.9.44-.33.88-.66,1.34-1.01.88-.66,1.74-1.35,2.59-2.06.44-.36.87-.71,1.27-1.07.64-.55,1.27-1.1,1.89-1.68,7.14-6.49,13.11-14.21,17.64-22.75.52-.97,1.02-1.97,1.49-2.96,5.58-11.62,8.52-24.62,8.16-38.08-.03-1.2-.1-2.39-.18-3.57-.05-.71-.12-1.42-.19-2.12-.04-.39-.08-.79-.12-1.18-.12-1.11-.27-2.21-.43-3.31-.02-.13-.04-.25-.06-.38-6.27-39.91-41.06-69.46-81.7-70.42-.66-.02-1.32-.02-2-.02H80.18c0-22.15,8.98-42.18,23.49-56.69S138.2,0,160.35,0h82.44C330.06,0,403.41,68.94,407.94,155.02c.14,2.78.22,5.6.22,8.43Z"/>
    <path class="cls-5" d="M160.35,0C138.2,0,118.17,8.98,103.66,23.49s-23.49,34.54-23.49,56.69v377.36H0V0h160.35Z"/>
  </g>
  <g>
    <path class="cls-3" d="M501.09,332.45V125.08h89.76c18.56,0,34.56,3.01,47.99,9.04,13.43,6.03,23.8,14.66,31.11,25.92,7.3,11.26,10.96,24.69,10.96,40.29s-3.66,28.69-10.96,39.84c-7.31,11.16-17.68,19.7-31.11,25.63-13.43,5.93-29.43,8.89-47.99,8.89h-63.1l21.33-21.03v78.8h-47.99ZM549.08,258.99l-21.33-22.52h60.43c14.81,0,25.87-3.21,33.18-9.63,7.3-6.42,10.96-15.26,10.96-26.51s-3.66-20.34-10.96-26.66c-7.31-6.32-18.37-9.48-33.18-9.48h-60.43l21.33-22.81v117.61ZM632.91,332.45l-51.84-75.25h51.25l52.44,75.25h-51.84Z"/>
    <path class="cls-3" d="M735.57,332.45l92.43-207.37h47.4l92.72,207.37h-50.36l-75.84-183.08h18.96l-76.13,183.08h-49.18ZM781.79,288.02l12.74-36.44h106.65l13.03,36.44h-132.42Z"/>
    <path class="cls-3" d="M1033.76,332.45V125.08h94.21c22.51,0,42.36,4.3,59.54,12.89,17.18,8.59,30.61,20.59,40.29,35.99,9.67,15.4,14.52,33.67,14.52,54.81s-4.84,39.15-14.52,54.66c-9.68,15.51-23.11,27.55-40.29,36.14-17.18,8.59-37.03,12.89-59.54,12.89h-94.21ZM1081.75,293.05h43.84c13.82,0,25.82-2.62,35.99-7.85,10.17-5.23,18.07-12.69,23.7-22.37,5.63-9.67,8.44-21.03,8.44-34.07s-2.81-24.63-8.44-34.22c-5.63-9.58-13.53-16.98-23.7-22.22-10.17-5.23-22.17-7.85-35.99-7.85h-43.84v128.57Z"/>
    <path class="cls-3" d="M1370.15,293.94h112.87v38.51h-160.56V125.08h156.71v38.51h-109.02v130.35ZM1366.6,208.62h99.83v37.33h-99.83v-37.33Z"/>
    <path class="cls-3" d="M1614.72,332.45v-84.73l10.96,29.03-91.24-151.68h50.95l69.91,116.42h-29.33l70.21-116.42h47.1l-91.24,151.68,10.66-29.03v84.73h-47.99Z"/>
    <path class="cls-3" d="M1767.45,332.45l92.43-207.37h47.4l92.72,207.37h-50.36l-75.84-183.08h18.96l-76.13,183.08h-49.18ZM1813.66,288.02l12.74-36.44h106.65l13.03,36.44h-132.42Z"/>
  </g>
</svg>