<svg viewBox="0 0 1124.577 266.626" fill="none" xmlns="http://www.w3.org/2000/svg">
    <g transform="translate(-578.713 -508.688)">
        <path d="M645.436 567.565H840.739L786.592 513.418C783.604 510.43 779.497 508.688 775.14 508.688H645.561C641.204 508.688 637.719 512.173 637.719 516.529V559.723C637.719 564.079 641.204 567.565 645.561 567.565H645.436Z" fill="#F23428"/>
        <path d="M645.436 567.565H645.561C641.204 567.565 637.719 564.079 637.719 559.723V567.565H645.436Z" fill="#F23428"/>
        <path d="M786.593 513.293V709.84C786.593 713.45 789.581 716.438 793.19 716.438H838.624C842.483 716.438 845.47 713.326 845.47 709.591V580.136C845.47 575.157 843.479 570.303 839.869 566.693L786.469 513.293H786.593Z" fill="#F23428"/>
        <path d="M793.19 716.438C789.581 716.438 786.593 713.45 786.593 709.84V716.438H793.19Z" fill="#F23428"/>
        <path d="M778.747 716.437L583.445 716.437L637.592 770.584C640.579 773.572 644.687 775.314 649.044 775.314L778.623 775.314C782.979 775.314 786.465 771.829 786.465 767.472L786.465 724.279C786.465 719.923 782.979 716.437 778.623 716.437L778.747 716.437Z" fill="#F23428"/>
        <path d="M778.747 716.437L778.623 716.437C782.979 716.437 786.465 719.923 786.465 724.279L786.465 716.437L778.747 716.437Z" fill="#F23428"/>
        <path d="M637.59 770.709L637.59 574.162C637.59 570.552 634.603 567.564 630.993 567.564L585.559 567.564C581.701 567.564 578.713 570.676 578.713 574.411L578.713 703.865C578.713 708.844 580.705 713.699 584.315 717.309L637.715 770.709L637.59 770.709Z" fill="#F23428"/>
        <path d="M630.993 567.564C634.603 567.564 637.59 570.552 637.59 574.162L637.59 567.564L630.993 567.564Z" fill="#F23428"/>
        <path d="M922.279 716.275V566.904H981.211C992.491 566.904 1002.12 568.922 1010.09 572.958C1018.12 576.945 1024.22 582.61 1028.4 589.952C1032.63 597.245 1034.75 605.827 1034.75 615.698C1034.75 625.617 1032.61 634.151 1028.33 641.298C1024.05 648.397 1017.85 653.843 1009.73 657.636C1001.66 661.428 991.884 663.325 980.409 663.325H940.951V637.943H975.303C981.332 637.943 986.341 637.117 990.328 635.463C994.315 633.81 997.281 631.33 999.226 628.024C1001.22 624.718 1002.22 620.609 1002.22 615.698C1002.22 610.738 1001.22 606.557 999.226 603.153C997.281 599.749 994.291 597.172 990.255 595.422C986.268 593.623 981.235 592.723 975.157 592.723H953.86V716.275H922.279ZM1002.95 648.3L1040.07 716.275H1005.21L968.885 648.3H1002.95ZM1070.49 716.275H1036.64L1088.21 566.904H1128.91L1180.4 716.275H1146.56L1109.14 601.038H1107.97L1070.49 716.275ZM1068.37 657.563H1148.31V682.215H1068.37V657.563ZM1239.01 716.275H1186.05V566.904H1239.44C1254.47 566.904 1267.4 569.895 1278.24 575.875C1289.09 581.807 1297.43 590.341 1303.26 601.476C1309.14 612.61 1312.09 625.933 1312.09 641.444C1312.09 657.004 1309.14 670.375 1303.26 681.558C1297.43 692.742 1289.04 701.324 1278.1 707.304C1267.21 713.285 1254.18 716.275 1239.01 716.275ZM1217.64 689.216H1237.69C1247.03 689.216 1254.88 687.563 1261.25 684.257C1267.67 680.902 1272.48 675.724 1275.69 668.722C1278.95 661.671 1280.58 652.579 1280.58 641.444C1280.58 630.407 1278.95 621.387 1275.69 614.385C1272.48 607.383 1267.69 602.229 1261.32 598.923C1254.95 595.617 1247.1 593.963 1237.77 593.963H1217.64V689.216ZM1323.16 716.275V566.904H1423.81V592.942H1354.74V628.535H1418.63V654.572H1354.74V690.238H1424.1V716.275H1323.16ZM1427.84 566.904H1463.21L1497.27 631.233H1498.73L1532.79 566.904H1568.17L1513.68 663.47V716.275H1482.32V663.47L1427.84 566.904ZM1583.6 716.275H1549.75L1601.32 566.904H1642.02L1693.51 716.275H1659.67L1622.25 601.038H1621.08L1583.6 716.275ZM1581.48 657.563H1661.42V682.215H1581.48V657.563Z" fill="#F23428"/>
        <path d="M1683.28 570.497H1678.56V583.561H1675.07V570.497H1670.34V567.564H1683.28V570.497Z" fill="#F23428"/>
        <path d="M1693.78 579.61H1693.91L1698.27 567.564H1703.29V583.561H1699.97L1700.18 571.103H1699.92L1695.07 583.561H1692.16L1687.39 571.103H1687.12L1687.34 583.561H1684.07V567.564H1689.33L1693.78 579.61Z" fill="#F23428"/>
    </g>
</svg>